{
  "accessors": [
    {
      "bufferView": 0,
      "componentType": 5126,
      "count": 6067,
      "max": [
        138.03660583496094,
        875.2797241210938,
        7.819869041442871
      ],
      "min": [
        -104.73999786376953,
        8.854700088500977,
        -238.70199584960938
      ],
      "type": "VEC3"
    },
    {
      "bufferView": 1,
      "componentType": 5125,
      "count": 9927,
      "type": "SCALAR"
    },
    {
      "bufferView": 2,
      "componentType": 5126,
      "count": 6067,
      "type": "VEC3"
    },
    {
      "bufferView": 3,
      "componentType": 5126,
      "count": 6067,
      "type": "VEC4"
    },
    {
      "bufferView": 4,
      "componentType": 5126,
      "count": 6067,
      "type": "VEC2"
    },
    {
      "bufferView": 5,
      "componentType": 5126,
      "count": 6067,
      "max": [
        138.03660583496094,
        875.2797241210938,
        7.819869041442871
      ],
      "min": [
        -104.73999786376953,
        8.854700088500977,
        -238.70199584960938
      ],
      "type": "VEC3"
    },
    {
      "bufferView": 6,
      "componentType": 5125,
      "count": 60,
      "type": "SCALAR"
    },
    {
      "bufferView": 7,
      "componentType": 5126,
      "count": 6067,
      "type": "VEC3"
    },
    {
      "bufferView": 8,
      "componentType": 5126,
      "count": 6067,
      "type": "VEC4"
    },
    {
      "bufferView": 9,
      "componentType": 5126,
      "count": 6067,
      "type": "VEC2"
    },
    {
      "bufferView": 10,
      "componentType": 5126,
      "count": 56,
      "max": [
        31.41724967956543,
        609.5525512695313,
        -91.857177734375
      ],
      "min": [
        7.067920207977295,
        579.9019775390625,
        -108.45099639892578
      ],
      "type": "VEC3"
    },
    {
      "bufferView": 11,
      "componentType": 5125,
      "count": 94,
      "type": "SCALAR"
    },
    {
      "bufferView": 12,
      "componentType": 5126,
      "count": 56,
      "type": "VEC3"
    },
    {
      "bufferView": 13,
      "componentType": 5126,
      "count": 56,
      "type": "VEC4"
    },
    {
      "bufferView": 14,
      "componentType": 5126,
      "count": 56,
      "type": "VEC2"
    }
  ],
  "asset": {
    "version": "2.0"
  },
  "bufferViews": [
    {
      "buffer": 0,
      "byteLength": 72804,
      "target": 34962
    },
    {
      "buffer": 1,
      "byteLength": 39708,
      "target": 34963
    },
    {
      "buffer": 2,
      "byteLength": 72804,
      "target": 34962
    },
    {
      "buffer": 3,
      "byteLength": 97072,
      "target": 34962
    },
    {
      "buffer": 4,
      "byteLength": 48536,
      "target": 34962
    },
    {
      "buffer": 0,
      "byteLength": 72804,
      "target": 34962
    },
    {
      "buffer": 5,
      "byteLength": 240,
      "target": 34963
    },
    {
      "buffer": 2,
      "byteLength": 72804,
      "target": 34962
    },
    {
      "buffer": 3,
      "byteLength": 97072,
      "target": 34962
    },
    {
      "buffer": 4,
      "byteLength": 48536,
      "target": 34962
    },
    {
      "buffer": 6,
      "byteLength": 672,
      "target": 34962
    },
    {
      "buffer": 7,
      "byteLength": 376,
      "target": 34963
    },
    {
      "buffer": 8,
      "byteLength": 672,
      "target": 34962
    },
    {
      "buffer": 9,
      "byteLength": 896,
      "target": 34962
    },
    {
      "buffer": 10,
      "byteLength": 448,
      "target": 34962
    }
  ],
  "buffers": [
    {
      "byteLength": 72804,
      "uri": "data:application/octet-stream;base64,"
    },
    {
      "byteLength": 39708,
      "uri": "data:application/octet-stream;base64,"
    },
    {
      "byteLength": 72804,
      "uri": "data:application/octet-stream;base64,"
    },
    {
      "byteLength": 97072,
      "uri": "data:application/octet-stream;base64,"
    },
    {
      "byteLength": 48536,
      "uri": "data:application/octet-stream;base64,"
    },
    {
      "byteLength": 240,
      "uri": "data:application/octet-stream;base64,"
    },
    {
      "byteLength": 672,
      "uri": "data:application/octet-stream;base64,"
    },
    {
      "byteLength": 376,
      "uri": "data:application/octet-stream;base64,"
    },
    {
      "byteLength": 672,
      "uri": "data:application/octet-stream;base64,"
    },
    {
      "byteLength": 896,
      "uri": "data:application/octet-stream;base64,"
    },
    {
      "byteLength": 448,
      "uri": "data:application/octet-stream;base64,"
    }
  ],
  "images": [
    {
      "uri": "textures/QUTUB_minar_texture.png"
    }
  ],
  "materials": [
    {
      "doubleSided": true,
      "name": "Qutab_minar_mat",
      "pbrMetallicRoughness": {
        "baseColorFactor": [
          0.800000011920929,
          0.800000011920929,
          0.800000011920929,
          1.0
        ],
        "baseColorTexture": {
          "index": 0
        }
      }
    },
    {
      "doubleSided": true,
      "name": "Default_Material",
      "pbrMetallicRoughness": {
        "baseColorFactor": [
          0.5,
          0.5,
          0.5,
          1.0
        ]
      }
    }
  ],
  "meshes": [
    {
      "name": "polySurface191_Qutab_minar_mat_0",
      "primitives": [
        {
          "attributes": {
            "NORMAL": 2,
            "POSITION": 0,
            "TANGENT": 3,
            "TEXCOORD_0": 4
          },
          "indices": 1,
          "material": 0,
          "mode": 5
        },
        {
          "attributes": {
            "NORMAL": 7,
            "POSITION": 5,
            "TANGENT": 8,
            "TEXCOORD_0": 9
          },
          "indices": 6,
          "material": 0,
          "mode": 4
        }
      ]
    },
    {
      "name": "polySurface191_Default_Material_0",
      "primitives": [
        {
          "attributes": {
            "NORMAL": 12,
            "POSITION": 10,
            "TANGENT": 13,
            "TEXCOORD_0": 14
          },
          "indices": 11,
          "material": 1,
          "mode": 5
        }
      ]
    }
  ],
  "nodes": [
    {
      "mesh": 0,
      "name": "polySurface191_Qutab_minar_mat_0"
    },
    {
      "mesh": 1,
      "name": "polySurface191_Default_Material_0"
    },
    {
      "children": [
        0,
        1
      ],
      "name": "polySurface191",
      "rotation": [
        0.0,
        0.0,
        0.0,
        1.0
      ],
      "scale": [
        0.009999999776482582,
        0.009999999776482582,
        0.009999999776482582
      ],
      "translation": [
        -0.20149999856948853,
        -0.11202400177717209,
        1.2136499881744385
      ]
    },
    {
      "children": [
        2
      ],
      "name": "RootNode"
    },
    {
      "children": [
        3
      ],
      "name": "Qutub Minar",
      "rotation": [
        1.1102230246251565e-16,
        0.0,
        0.0,
        1.0
      ],
      "scale": [
        1.0,
        1.0,
        1.0
      ],
      "translation": [
        0.0,
        0.0,
        0.0
      ]
    }
  ],
  "samplers": [
    {
      "magFilter": 9729,
      "minFilter": 9729,
      "wrapS": 10497,
      "wrapT": 10497
    }
  ],
  "scene": 0,
  "scenes": [
    {
      "nodes": [
        4
      ]
    }
  ],
  "textures": [
    {
      "sampler": 0,
      "source": 0
    }
  ]
}
